<?xml version="1.0" encoding="UTF-8"?>
<!DOCTYPE svg PUBLIC "-//W3C//DTD SVG 1.1//EN" "http://www.w3.org/Graphics/SVG/1.1/DTD/svg11.dtd">
<!-- Creator: CorelDRAW -->
<svg xmlns="http://www.w3.org/2000/svg" xml:space="preserve" width="106.967mm" height="88.623mm" version="1.1" style="shape-rendering:geometricPrecision; text-rendering:geometricPrecision; image-rendering:optimizeQuality; fill-rule:evenodd; clip-rule:evenodd"
viewBox="0 0 9033.46 7484.29"
 xmlns:xlink="http://www.w3.org/1999/xlink"
 xmlns:xodm="http://www.corel.com/coreldraw/odm/2003">
 <defs>
  <style type="text/css">
   <![CDATA[
    .fil1 {fill:#F4CF58}
    .fil0 {fill:#FF6B7C}
   ]]>
  </style>
 </defs>
 <g id="Layer_x0020_1">
  <metadata id="CorelCorpID_0Corel-Layer"/>
  <path class="fil0" d="M2364.68 0c-1354.55,0 -2450.9,1151.98 -2359.33,2556.68 52.01,797.84 431.21,1262.04 809.72,1637.44 517.41,513.17 2695.59,2743.27 3059.68,3048.48 235.61,197.51 573.75,311.29 956.84,194.69 341.95,-104.07 504.7,-338.36 695.49,-528.08 688,-684.13 2559.21,-2508.43 3032.35,-3074.62 200.05,-239.38 364.69,-471.14 244.76,-867.01 -215.97,-712.88 -1061.39,-943.1 -1543.21,-581.31 -110.43,82.92 -216.8,214.72 -314.08,312l-1519.17 1519.68c-175.38,175.62 -405.07,444.28 -643.93,577.11 -953.41,530.18 -2061.99,11.35 -2317.86,-942.83 -232.67,-867.72 248.83,-1381.52 611.99,-1745.78 210.52,-211.16 399.52,-399.72 610.94,-610.5 173.41,-172.88 468.58,-435.44 598.99,-609.18 -267.68,-230.87 -370.67,-403.7 -773.23,-613.96 -345.99,-180.7 -709.61,-272.82 -1149.95,-272.82z"/>
  <path class="fil1" d="M9033.46 2107.82c-80.57,-820.85 -545.79,-1360.93 -1010.97,-1695.21 -542.36,-389.75 -1422.86,-588.56 -2079.76,-178.54 -348.66,217.61 -1068.13,989.3 -1395.08,1316.23 -261.2,261.17 -1200.45,1165.11 -1354.91,1386.35 -426.64,611.09 121.32,1582.02 974.96,1418.02 432.03,-83 1154.27,-946.82 1472.51,-1264.91 329.9,-329.73 1042.83,-1105.05 1401.26,-1309.45 1078.27,-614.91 1914.05,291.73 1991.99,327.49z"/>
 </g>
</svg>
